# xmcd
#
# Track frame offsets:
#        150
#        11890
#        23815
#        41602
#        52087
#        63267
#        74540
#        83557
#        102572
#        109260
#        119065
#        133582
#
# Disc length: 2082 seconds
#
# Revision: 0
# Processed by: cddbd v1.5.1PL0 Copyright (c) Steve Scherf et al.
# Submitted via: ExactAudioCopy v0.95a5
#
DISCID=ae08200c
DTITLE=Bill Ka`iwa - This Is Bill Ka`iwa
DYEAR=1975
DGENRE=Hawaiian
TTITLE0=Kamakahala
TTITLE1=`Oiwi Nani
TTITLE2=Wai Anuenue
TTITLE3=Pili `Ao `Ao
TTITLE4=Nani Kipukai
TTITLE5=E Kipimana Kane
TTITLE6=Sweet Kamakani
TTITLE7=Roselani
TTITLE8=Loa`a Ko Puni Kauoha
TTITLE9=Ho`omau
TTITLE10=Waimanalo
TTITLE11=Queen's Jubilee
EXTD=
EXTT0=
EXTT1=
EXTT2=
EXTT3=
EXTT4=
EXTT5=
EXTT6=
EXTT7=
EXTT8=
EXTT9=
EXTT10=
EXTT11=
PLAYORDER=
